<svg width="16" height="15" viewBox="0 0 16 15" fill="none" xmlns="http://www.w3.org/2000/svg">
<path d="M2.29688 14.6738H13.1719C13.9375 14.6738 14.5104 14.4811 14.8906 14.0957C15.276 13.7103 15.4688 13.1426 15.4688 12.3926V2.81445C15.4688 2.05924 15.276 1.49154 14.8906 1.11133C14.5104 0.725911 13.9375 0.533203 13.1719 0.533203H2.29688C1.53646 0.533203 0.963542 0.725911 0.578125 1.11133C0.192708 1.49154 0 2.05924 0 2.81445V12.3926C0 13.1478 0.192708 13.7155 0.578125 14.0957C0.963542 14.4811 1.53646 14.6738 2.29688 14.6738ZM2.23438 13.7129C1.82292 13.7129 1.50781 13.6035 1.28906 13.3848C1.07031 13.1712 0.960938 12.8535 0.960938 12.4316V5.2832C0.960938 4.86133 1.07031 4.54362 1.28906 4.33008C1.50781 4.11133 1.82292 4.00195 2.23438 4.00195H13.2344C13.6406 4.00195 13.9531 4.11133 14.1719 4.33008C14.3958 4.54362 14.5078 4.86133 14.5078 5.2832V12.4316C14.5078 12.8535 14.3958 13.1712 14.1719 13.3848C13.9531 13.6035 13.6406 13.7129 13.2344 13.7129H2.23438ZM6.1875 6.7832H6.64844C6.76823 6.7832 6.84896 6.76237 6.89062 6.7207C6.9375 6.67904 6.96094 6.59831 6.96094 6.47852V6.01758C6.96094 5.89779 6.9375 5.81966 6.89062 5.7832C6.84896 5.74154 6.76823 5.7207 6.64844 5.7207H6.1875C6.06771 5.7207 5.98438 5.74154 5.9375 5.7832C5.89583 5.81966 5.875 5.89779 5.875 6.01758V6.47852C5.875 6.59831 5.89583 6.67904 5.9375 6.7207C5.98438 6.76237 6.06771 6.7832 6.1875 6.7832ZM8.83594 6.7832H9.29688C9.42188 6.7832 9.50521 6.76237 9.54688 6.7207C9.58854 6.67904 9.60938 6.59831 9.60938 6.47852V6.01758C9.60938 5.89779 9.58854 5.81966 9.54688 5.7832C9.50521 5.74154 9.42188 5.7207 9.29688 5.7207H8.83594C8.71615 5.7207 8.63542 5.74154 8.59375 5.7832C8.55208 5.81966 8.53125 5.89779 8.53125 6.01758V6.47852C8.53125 6.59831 8.55208 6.67904 8.59375 6.7207C8.63542 6.76237 8.71615 6.7832 8.83594 6.7832ZM11.4922 6.7832H11.9453C12.0703 6.7832 12.1536 6.76237 12.1953 6.7207C12.237 6.67904 12.2578 6.59831 12.2578 6.47852V6.01758C12.2578 5.89779 12.237 5.81966 12.1953 5.7832C12.1536 5.74154 12.0703 5.7207 11.9453 5.7207H11.4922C11.3672 5.7207 11.2839 5.74154 11.2422 5.7832C11.2005 5.81966 11.1797 5.89779 11.1797 6.01758V6.47852C11.1797 6.59831 11.2005 6.67904 11.2422 6.7207C11.2839 6.76237 11.3672 6.7832 11.4922 6.7832ZM3.53906 9.39258H4C4.11979 9.39258 4.20052 9.37175 4.24219 9.33008C4.28385 9.28841 4.30469 9.20768 4.30469 9.08789V8.63477C4.30469 8.50977 4.28385 8.42904 4.24219 8.39258C4.20052 8.35091 4.11979 8.33008 4 8.33008H3.53906C3.41406 8.33008 3.33073 8.35091 3.28906 8.39258C3.2474 8.42904 3.22656 8.50977 3.22656 8.63477V9.08789C3.22656 9.20768 3.2474 9.28841 3.28906 9.33008C3.33073 9.37175 3.41406 9.39258 3.53906 9.39258ZM6.1875 9.39258H6.64844C6.76823 9.39258 6.84896 9.37175 6.89062 9.33008C6.9375 9.28841 6.96094 9.20768 6.96094 9.08789V8.63477C6.96094 8.50977 6.9375 8.42904 6.89062 8.39258C6.84896 8.35091 6.76823 8.33008 6.64844 8.33008H6.1875C6.06771 8.33008 5.98438 8.35091 5.9375 8.39258C5.89583 8.42904 5.875 8.50977 5.875 8.63477V9.08789C5.875 9.20768 5.89583 9.28841 5.9375 9.33008C5.98438 9.37175 6.06771 9.39258 6.1875 9.39258ZM8.83594 9.39258H9.29688C9.42188 9.39258 9.50521 9.37175 9.54688 9.33008C9.58854 9.28841 9.60938 9.20768 9.60938 9.08789V8.63477C9.60938 8.50977 9.58854 8.42904 9.54688 8.39258C9.50521 8.35091 9.42188 8.33008 9.29688 8.33008H8.83594C8.71615 8.33008 8.63542 8.35091 8.59375 8.39258C8.55208 8.42904 8.53125 8.50977 8.53125 8.63477V9.08789C8.53125 9.20768 8.55208 9.28841 8.59375 9.33008C8.63542 9.37175 8.71615 9.39258 8.83594 9.39258ZM11.4922 9.39258H11.9453C12.0703 9.39258 12.1536 9.37175 12.1953 9.33008C12.237 9.28841 12.2578 9.20768 12.2578 9.08789V8.63477C12.2578 8.50977 12.237 8.42904 12.1953 8.39258C12.1536 8.35091 12.0703 8.33008 11.9453 8.33008H11.4922C11.3672 8.33008 11.2839 8.35091 11.2422 8.39258C11.2005 8.42904 11.1797 8.50977 11.1797 8.63477V9.08789C11.1797 9.20768 11.2005 9.28841 11.2422 9.33008C11.2839 9.37175 11.3672 9.39258 11.4922 9.39258ZM3.53906 12.002H4C4.11979 12.002 4.20052 11.9837 4.24219 11.9473C4.28385 11.9056 4.30469 11.8223 4.30469 11.6973V11.2441C4.30469 11.1191 4.28385 11.0384 4.24219 11.002C4.20052 10.9603 4.11979 10.9395 4 10.9395H3.53906C3.41406 10.9395 3.33073 10.9603 3.28906 11.002C3.2474 11.0384 3.22656 11.1191 3.22656 11.2441V11.6973C3.22656 11.8223 3.2474 11.9056 3.28906 11.9473C3.33073 11.9837 3.41406 12.002 3.53906 12.002ZM6.1875 12.002H6.64844C6.76823 12.002 6.84896 11.9837 6.89062 11.9473C6.9375 11.9056 6.96094 11.8223 6.96094 11.6973V11.2441C6.96094 11.1191 6.9375 11.0384 6.89062 11.002C6.84896 10.9603 6.76823 10.9395 6.64844 10.9395H6.1875C6.06771 10.9395 5.98438 10.9603 5.9375 11.002C5.89583 11.0384 5.875 11.1191 5.875 11.2441V11.6973C5.875 11.8223 5.89583 11.9056 5.9375 11.9473C5.98438 11.9837 6.06771 12.002 6.1875 12.002ZM8.83594 12.002H9.29688C9.42188 12.002 9.50521 11.9837 9.54688 11.9473C9.58854 11.9056 9.60938 11.8223 9.60938 11.6973V11.2441C9.60938 11.1191 9.58854 11.0384 9.54688 11.002C9.50521 10.9603 9.42188 10.9395 9.29688 10.9395H8.83594C8.71615 10.9395 8.63542 10.9603 8.59375 11.002C8.55208 11.0384 8.53125 11.1191 8.53125 11.2441V11.6973C8.53125 11.8223 8.55208 11.9056 8.59375 11.9473C8.63542 11.9837 8.71615 12.002 8.83594 12.002Z" fill="#58606A"/>
</svg>
