<svg width="17" height="17" viewBox="0 0 17 17" fill="none" xmlns="http://www.w3.org/2000/svg">
<path d="M8.30469 16.4395C9.3776 16.4395 10.3854 16.2337 11.3281 15.8223C12.276 15.416 13.1094 14.8535 13.8281 14.1348C14.5469 13.4108 15.112 12.5775 15.5234 11.6348C15.9349 10.6868 16.1406 9.67643 16.1406 8.60352C16.1406 7.5306 15.9349 6.52279 15.5234 5.58008C15.112 4.63216 14.5469 3.79883 13.8281 3.08008C13.1094 2.35612 12.276 1.79102 11.3281 1.38477C10.3854 0.973307 9.3776 0.767578 8.30469 0.767578C8.11719 0.767578 7.97917 0.817057 7.89062 0.916016C7.80729 1.00977 7.76562 1.14258 7.76562 1.31445V4.38477C7.76562 4.51497 7.80469 4.62695 7.88281 4.7207C7.96615 4.80924 8.07552 4.85352 8.21094 4.85352C8.34635 4.85352 8.45312 4.80924 8.53125 4.7207C8.61458 4.62695 8.65625 4.51497 8.65625 4.38477V1.21289L8.27344 1.77539C9.22656 1.77539 10.1172 1.95247 10.9453 2.30664C11.7734 2.6556 12.5 3.14258 13.125 3.76758C13.7552 4.39258 14.2448 5.11914 14.5938 5.94727C14.9479 6.77018 15.125 7.6556 15.125 8.60352C15.125 9.54622 14.9479 10.4316 14.5938 11.2598C14.2448 12.0827 13.7578 12.8066 13.1328 13.4316C12.5078 14.0566 11.7812 14.5462 10.9531 14.9004C10.1302 15.2546 9.2474 15.4316 8.30469 15.4316C7.35677 15.4316 6.46875 15.2546 5.64062 14.9004C4.81771 14.5462 4.09375 14.0566 3.46875 13.4316C2.84375 12.8066 2.35417 12.0827 2 11.2598C1.65104 10.4316 1.47656 9.54622 1.47656 8.60352C1.48177 7.72331 1.63802 6.89518 1.94531 6.11914C2.2526 5.3431 2.67969 4.6556 3.22656 4.05664C3.3151 3.94206 3.36198 3.81966 3.36719 3.68945C3.3724 3.55404 3.32552 3.43685 3.22656 3.33789C3.1276 3.23372 3.00521 3.18685 2.85938 3.19727C2.71875 3.20247 2.59635 3.27018 2.49219 3.40039C1.86719 4.0931 1.3724 4.88477 1.00781 5.77539C0.648438 6.66602 0.46875 7.60872 0.46875 8.60352C0.46875 9.67643 0.671875 10.6868 1.07812 11.6348C1.48958 12.5775 2.05469 13.4108 2.77344 14.1348C3.4974 14.8535 4.33073 15.416 5.27344 15.8223C6.22135 16.2337 7.23177 16.4395 8.30469 16.4395ZM9.4375 9.58789C9.625 9.38997 9.73698 9.17904 9.77344 8.95508C9.8151 8.72591 9.78646 8.50456 9.6875 8.29102C9.58854 8.07747 9.42708 7.89258 9.20312 7.73633L5.15625 4.85352C5.04167 4.77539 4.9349 4.75456 4.83594 4.79102C4.74219 4.82227 4.67708 4.88477 4.64062 4.97852C4.60938 5.07227 4.63281 5.17643 4.71094 5.29102L7.59375 9.3457C7.75 9.56966 7.9349 9.73112 8.14844 9.83008C8.36198 9.92904 8.58073 9.96029 8.80469 9.92383C9.03385 9.88737 9.24479 9.77539 9.4375 9.58789Z" fill="#58606A"/>
</svg>
