<svg xmlns="http://www.w3.org/2000/svg" width="518" height="762.192" viewBox="0 0 518 762.192">
  <g id="Group_37" data-name="Group 37" transform="translate(-238.914 -453.792)" opacity="0.02">
    <path id="Path_75" data-name="Path 75" d="M493.4,1215.984c-33.279-105.883-213.224-149.7-244.984-240.473-15.146-57.441-13.631-123.985,15.081-167.83,0,57.437,40.871,137.586,78.634,98.282,34.815-36.3-72.522-51.437-57.441-136.1,3.026-39.3,36.3-60.493,49.922-149.728,37.789,37.819-21.184,99.8,68.046,136.105-107.368-130.05,83.145-176.946,68.055-302.447,142.14,140.638,3.03,226.843,80.154,263.138C579.6,729.016,620.417,651.9,593.2,588.378c84.66,72.6,75.63,151.212,31.759,213.211-16.648,22.687,1.515,71.1,22.686,86.209-7.549-45.382,31.729-68.033,42.33-111.878,78.626,87.711,107.389,195.057-22.66,282.769-83.171,55.952-128.552,99.8-173.912,157.294Z" transform="translate(0)" fill="#e50019" fill-rule="evenodd"/>
    <path id="Path_76" data-name="Path 76" d="M332.445,776.4c-62.008-33.3-60.519-87.716-25.738-136.123,27.223-39.334,39.334-98.286,16.661-116.458,40.785,4.545,25.7,122.483,43.81,127.024,19.682,7.571-18.107-37.789-3.026-75.608,7.627,30.249,57.527,71.068,62.038,117.938,3.021,43.875-10.566,66.553-39.33,81.664-10.6,6.056-45.36,6.056-54.416,1.563Z" transform="translate(144.679 231.379)" fill="#fe0" fill-rule="evenodd"/>
  </g>
</svg>
