<svg xmlns="http://www.w3.org/2000/svg" width="497.531" height="40" viewBox="0 0 497.531 40"><defs><style>.a{fill:#f1f1f1;}</style></defs><path class="a" d="M0,93.512H497.531v36.342c-.9-.083-1.8-.159-2.706-.252-.761-.078-1.107.263-.874.947.318.93.747,1.825,1.224,2.963a14.3,14.3,0,0,0-10.57-1.067l.5-.888h-4.455l1.095-1.5c-2.511-1.145-9.247-.047-10.309,1.678l7.27-.385c-3.4.66-6.776,1.854-10.226.651l.869-.455-3.216-.689.026-.3,6.579-2.028c-3.144-.685-6.2-1.15-8.884,1.012-.7.565-1.615.921-2.342.233-.41-.389-.411-1.183-.7-2.129a22.65,22.65,0,0,0-3.807.668,23.8,23.8,0,0,1-9.186,1.259,2.37,2.37,0,0,1-2.5-1.706l-3.9.959V126.8l-3.153,1.779-5.514-1.827.79,1.648h-3.983c.363-.327.884-.386,1.031-.644a3.658,3.658,0,0,0,.53-1.771c0-.225-.769-.642-1.167-.62a15.821,15.821,0,0,0-3.513.5c-1.5.433-2.928,1.082-4.565,1.706l.468-1.148a44.531,44.531,0,0,1-4.682.3c-4.1-.156-8.241.186-12.26-1.073a16.606,16.606,0,0,0-4.206-.54c-1.243-.054-2.381.493-3.777.059-1.451-.45-3.163-.139-4.759-.11a8.938,8.938,0,0,0-1.5.282c-.582.113-1.253.46-1.731.294a9.509,9.509,0,0,0-4.475-.556c-.811.109-1.631.164-2.449.2a2.36,2.36,0,0,1-.7-.194l.045-.354h7.587V122.8a50.569,50.569,0,0,0-11.187,1.419,13.418,13.418,0,0,1-6.5.141c-2.279-.583-4.617-.95-7.188-1.464l2-1.425c-1.834-.341-4.541.481-4.978,1.317a37.736,37.736,0,0,0-4.018-.163c-1.672.1-3.326.509-5,.587-.68.032-1.8.8-2.132-.607-.012-.05-.323-.065-.488-.044-2.42.3-4.684-.392-6.984-.947a7.827,7.827,0,0,0-2.769-.089c-1.459.188-2.894.552-4.341.836-.238.047-.656.155-.7.078-.644-1.119-1.67-.522-2.53-.538-2.667-.049-5.335-.048-8-.063-.995-.006-1.989,0-3.211,0l1,1.063-.171.262a8.161,8.161,0,0,1-1.5-.737,4.577,4.577,0,0,0-3.84-1.074c-1.3.28-2.308,1.083-3.856-.026-1.114-.8-3.02-.577-4.577-.781-1.357-.177-2.719-.312-4.079-.466-.426-.048-.968-.283-1.255-.113-1.094.649-2.238.258-3.356.329a17.364,17.364,0,0,1-1.795.179c-.8-.034-1.587-.2-2.38-.3l.035-.364,3.158-.391-.066-.583c-1.795.1-3.591.187-5.384.314a14.92,14.92,0,0,1-1.508.273c-2.684-.1-5.366-.26-8.048-.406a2.052,2.052,0,0,1-.615-.137,8.337,8.337,0,0,0-6.519.035c-.676.287-1.758.6-2.2.294-1.211-.837-2.237-.37-3.358-.054a3.38,3.38,0,0,1-.9.086c-2.4.007-4.791,0-7.186,0l.243-.577-.67-.55,1.259-.12c-3.066-1.1-6.114-.379-9.121.039-.518-1.407-3.692-1.877-5.25-.831l.75.762-.138.31c-.485-.13-.979-.235-1.451-.4a9.712,9.712,0,0,0-2.266-.813c-4.452-.306-8.91-.574-13.37-.727-2.749-.095-5.506.052-8.26.059a6.531,6.531,0,0,1-2.794-.192,10.07,10.07,0,0,0-5.511-.889c-.063,0-.131-.074-.2-.114l.282-.751a17.256,17.256,0,0,0-3.5-.6c-1.707.057-3.4.538-5.1.634-1.657.093-3.33-.071-5-.123q.007-.3.014-.6H206.6q0-.172.007-.344c-.446-.083-1.037-.02-1.314-.275a2.608,2.608,0,0,0-3.132-.362c-1.76,1.019-3.516.592-5.289.459-1.432-.107-2.854-.348-4.279-.538a1.4,1.4,0,0,1-.342-.149l.885-.667a4.837,4.837,0,0,0-3.466.349,4.265,4.265,0,0,1-3.319-.052,3.079,3.079,0,0,0-2.073-.3c-1.176.085-2.358.093-3.537.143-.06,0-.117.09-.2.154l.823.878a16.362,16.362,0,0,1-2.055-.119c-1.352-.264-2.685-.615-4.033-.9-.314-.066-.913-.077-.951.029-.331.931-1.023.456-1.485.323a16.591,16.591,0,0,1-2.872-1.108,9.025,9.025,0,0,0-5.283-.746c.126.939.238,1.781.391,2.923-.662-.489-1.395-.782-1.7-1.307-.781-1.343-2.319-1.127-3.449-1.612-1.2-.515-2.759-.227-4.158-.333-1.105-.084-2.205-.233-3.635-.389l1.717-.5-.068-.3-3.007-.158-.011-.2,1.453-.49a13.944,13.944,0,0,0-7.959.479h2.927v.316c-.364.034-.728.1-1.091.1-2.1,0-4.192-.029-6.288-.022a17.813,17.813,0,0,1-7.738-1.685,12.387,12.387,0,0,0-6.658-1.089,11.7,11.7,0,0,0-1.522.346l.013.366,4.846.676-.076.3-13.106-.651a4.74,4.74,0,0,0-.307-1.051c-.607-.956-1.565-.81-2.5-.664-.719.113-1.607.6-2.112.342-1.392-.7-2.472.062-3.685.324-1.819.393-3.592.855-5.477-.125a9.682,9.682,0,0,0-3.56-.652c-2.44-.2-4.89-.311-7.335-.451-1.718-.1-3.439-.278-5.155-.252-1.918.03-3.839.428-5.746.355-5.644-.216-11.28-.629-16.924-.876-2.56-.112-5.129-.012-7.695-.015-.048,0-.1-.076-.154-.126a1.43,1.43,0,0,0,.275-.042,2.786,2.786,0,0,0,.3-.153c-.019-.081-.014-.133-.039-.158-1.465-1.516-3.462-.357-5.117-.94-.058-.021-.172.165-.279.209-.363.146-.765.436-1.1.38-2.53-.422-5.039-.967-7.574-1.36a9.849,9.849,0,0,0-3.959-.149,2.4,2.4,0,0,1-2.055-.256,21.533,21.533,0,0,0-2.25-.848l.954,1.384a11.513,11.513,0,0,1-1.2-.005c-4.919-.6-9.823-1.364-14.759-1.766-4.042-.329-8.035-1.2-12.159-.87C4.048,99.69,2.073,99.149,0,98.91Z" transform="translate(0 -93.512)"/></svg>