<svg xmlns="http://www.w3.org/2000/svg" width="503.031" height="40" viewBox="0 0 503.031 40"><defs><style>.a{fill:#f1f1f1;}</style></defs><path class="a" d="M503.031,133.512H0V97.17c.912.083,1.825.159,2.736.252.769.078,1.119-.263.884-.947-.321-.93-.755-1.825-1.237-2.963a14.6,14.6,0,0,0,10.687,1.067l-.5.888h4.5l-1.107,1.5c2.539,1.145,9.35.047,10.423-1.678l-7.35.385c3.44-.66,6.851-1.854,10.339-.651l-.878.455,3.251.689-.026.3-6.652,2.028c3.179.685,6.27,1.15,8.983-1.012.71-.565,1.633-.921,2.368-.233.415.389.416,1.183.705,2.129a23.13,23.13,0,0,0,3.849-.668,24.307,24.307,0,0,1,9.287-1.259,2.4,2.4,0,0,1,2.53,1.706l3.943-.959v2.026l3.188-1.779,5.574,1.827-.8-1.648h4.027c-.367.327-.894.386-1.042.644a3.629,3.629,0,0,0-.536,1.771c0,.225.778.642,1.18.62a16.161,16.161,0,0,0,3.552-.5c1.514-.433,2.96-1.082,4.616-1.706l-.473,1.148a45.517,45.517,0,0,1,4.734-.3c4.145.156,8.332-.186,12.4,1.073a16.965,16.965,0,0,0,4.252.54c1.257.054,2.407-.493,3.819-.059,1.467.45,3.2.139,4.812.11a9.127,9.127,0,0,0,1.516-.282c.589-.113,1.266-.46,1.751-.294a9.713,9.713,0,0,0,4.525.556c.82-.109,1.649-.164,2.476-.2a2.407,2.407,0,0,1,.711.194l-.045.354H109.3v1.938a51.664,51.664,0,0,0,11.311-1.419,13.711,13.711,0,0,1,6.57-.141c2.3.583,4.668.95,7.268,1.464l-2.024,1.425c1.854.341,4.591-.481,5.033-1.317a38.571,38.571,0,0,0,4.062.163c1.691-.1,3.363-.509,5.053-.587.688-.032,1.818-.8,2.156.607.012.05.327.065.494.044,2.447-.3,4.735.392,7.061.947a8,8,0,0,0,2.8.089c1.476-.188,2.926-.552,4.389-.836.241-.047.663-.155.708-.078.651,1.119,1.689.522,2.558.538,2.7.049,5.394.048,8.092.063,1.006.006,2.011,0,3.246,0l-1.011-1.063.173-.262a8.29,8.29,0,0,1,1.519.737,4.664,4.664,0,0,0,3.882,1.074c1.314-.28,2.333-1.083,3.9.026,1.127.8,3.053.577,4.627.781,1.372.177,2.75.312,4.125.466.43.048.979.283,1.269.113,1.106-.649,2.263-.258,3.393-.329a17.745,17.745,0,0,1,1.815-.179c.805.034,1.6.2,2.406.3l-.036.364-3.193.391.067.583c1.815-.1,3.631-.187,5.444-.314a15.231,15.231,0,0,1,1.524-.273c2.714.1,5.425.26,8.137.406a2.094,2.094,0,0,1,.622.137,8.515,8.515,0,0,0,6.591-.035c.683-.287,1.778-.6,2.228-.294,1.224.837,2.261.37,3.4.054a3.454,3.454,0,0,1,.908-.086q3.633-.01,7.265,0l-.246.577.678.55-1.273.12c3.1,1.1,6.182.379,9.222-.039.524,1.407,3.733,1.877,5.308.831l-.758-.762.14-.31c.49.13.99.235,1.467.4a9.89,9.89,0,0,0,2.291.813c4.5.306,9.008.574,13.518.727,2.779.095,5.567-.052,8.351-.059a6.673,6.673,0,0,1,2.825.192,10.282,10.282,0,0,0,5.572.889c.063,0,.133.074.2.114l-.285.751a17.621,17.621,0,0,0,3.537.6c1.726-.057,3.433-.538,5.161-.634,1.675-.093,3.366.071,5.051.123q-.007.3-.014.6h-3.713q0,.172-.007.344c.451.083,1.049.02,1.328.275a2.659,2.659,0,0,0,3.166.362c1.78-1.019,3.555-.592,5.348-.459,1.448.107,2.885.348,4.326.538a1.42,1.42,0,0,1,.346.149l-.895.667a4.939,4.939,0,0,0,3.5-.349,4.356,4.356,0,0,1,3.355.052,3.144,3.144,0,0,0,2.1.3c1.189-.085,2.384-.093,3.577-.143.061,0,.118-.09.2-.154l-.832-.878a16.723,16.723,0,0,1,2.078.119c1.367.264,2.715.615,4.078.9.318.066.923.077.961-.029.335-.931,1.034-.456,1.5-.323a16.887,16.887,0,0,1,2.9,1.108,9.215,9.215,0,0,0,5.341.746c-.127-.939-.241-1.781-.4-2.923.669.489,1.41.782,1.719,1.307.79,1.343,2.344,1.127,3.487,1.612,1.213.515,2.79.227,4.2.333,1.117.084,2.23.233,3.675.389l-1.736.5.068.3,3.04.158.011.2-1.469.49a14.246,14.246,0,0,0,8.047-.479h-2.96v-.316c.368-.034.736-.1,1.1-.1,2.119,0,4.238.029,6.358.022a18.178,18.178,0,0,1,7.824,1.685,12.646,12.646,0,0,0,6.732,1.089,11.943,11.943,0,0,0,1.539-.346l-.013-.366-4.9-.676.077-.3,13.251.651a4.7,4.7,0,0,0,.311,1.051c.614.956,1.582.81,2.523.664.727-.113,1.625-.6,2.136-.342,1.407.7,2.5-.062,3.726-.324,1.839-.393,3.632-.855,5.537.125a9.885,9.885,0,0,0,3.6.652c2.467.2,4.944.311,7.417.451,1.737.1,3.477.278,5.212.252,1.939-.03,3.882-.428,5.81-.355,5.707.216,11.405.629,17.111.876,2.588.112,5.186.012,7.78.015.048,0,.1.076.156.126a1.461,1.461,0,0,0-.278.042,2.835,2.835,0,0,0-.307.153c.019.081.014.133.039.158,1.481,1.516,3.5.357,5.173.94.058.021.174-.165.283-.209.367-.146.773-.436,1.112-.38,2.558.422,5.1.967,7.657,1.36a10.066,10.066,0,0,0,4,.149,2.448,2.448,0,0,1,2.078.256,21.927,21.927,0,0,0,2.275.848l-.964-1.384a11.769,11.769,0,0,1,1.213.005c4.973.6,9.931,1.364,14.922,1.766,4.087.329,8.124,1.2,12.293.87,1.937-.154,3.935.386,6.031.626Z" transform="translate(0 -93.512)"/></svg>
